<svg width="11" height="11" viewBox="0 0 11 11" fill="none" xmlns="http://www.w3.org/2000/svg">
<path d="M10.7117 5.33838C10.8317 5.24904 10.9206 5.1244 10.9661 4.98194C11.0116 4.83948 11.0114 4.68635 10.9655 4.54401C10.9196 4.40168 10.8303 4.27728 10.7102 4.18825C10.59 4.09923 10.4451 4.05005 10.2955 4.04761L7.39186 3.93789C7.37759 3.93691 7.3639 3.93182 7.35245 3.92323C7.341 3.91464 7.33228 3.90292 7.32734 3.88949L6.32395 1.17887C6.27354 1.04096 6.18197 0.921883 6.06166 0.83775C5.94134 0.753617 5.79807 0.708496 5.65127 0.708496C5.50446 0.708496 5.3612 0.753617 5.24088 0.83775C5.12056 0.921883 5.02899 1.04096 4.97858 1.17887L3.97842 3.89917C3.97348 3.9126 3.96476 3.92432 3.95331 3.93291C3.94186 3.9415 3.92817 3.94659 3.91389 3.94758L1.01021 4.05729C0.860704 4.05973 0.715712 4.10891 0.595562 4.19794C0.475412 4.28696 0.386131 4.41136 0.340236 4.55369C0.294342 4.69603 0.294136 4.84916 0.339647 4.99162C0.385159 5.13408 0.474105 5.25872 0.594015 5.34806L2.87179 7.13901C2.88319 7.14798 2.89171 7.1601 2.8963 7.17386C2.90089 7.18763 2.90134 7.20244 2.89761 7.21645L2.11361 9.99484C2.07298 10.1363 2.07692 10.2869 2.12488 10.4261C2.17285 10.5652 2.26251 10.6862 2.38167 10.7726C2.50083 10.859 2.64371 10.9066 2.79086 10.9089C2.93802 10.9112 3.08231 10.8681 3.20411 10.7854L5.61094 9.17197C5.62279 9.16379 5.63686 9.1594 5.65127 9.1594C5.66567 9.1594 5.67974 9.16379 5.6916 9.17197L8.09843 10.7854C8.21858 10.8709 8.36235 10.9168 8.50978 10.9168C8.65722 10.9168 8.80099 10.8709 8.92114 10.7854C9.04033 10.6999 9.13008 10.5794 9.17803 10.4408C9.22599 10.3021 9.22979 10.1519 9.18892 10.011L8.39848 7.22291C8.39429 7.20891 8.39452 7.19396 8.39914 7.1801C8.40376 7.16624 8.41254 7.15415 8.42429 7.14546L10.7117 5.33838Z" fill="black" fill-opacity="0.2"/>
</svg>
